<svg version="1.1" xmlns="http://www.w3.org/2000/svg" xmlns:xlink="http://www.w3.org/1999/xlink" width="71.84375" height="31.9375" viewBox="0,0,71.84375,31.9375"><g transform="translate(-284.12857,-163.8625)"><g data-paper-data="{&quot;isPaintingLayer&quot;:true}" fill-rule="nonzero" stroke="none" stroke-linecap="butt" stroke-linejoin="miter" stroke-miterlimit="10" stroke-dasharray="" stroke-dashoffset="0" style="mix-blend-mode: normal"><path d="M284.12857,195.8v-31.9375h71.84375v31.9375z" fill="#b183ff" stroke-width="0"/><path d="M302.74825,192.76943c-0.89443,0.44721 -1.34164,-0.44721 -1.34164,-0.44721l-0.52221,-1.0475c-1.23252,-3.32243 -3.93433,-6.00868 -5.91793,-9.04644l-0.18939,0.15496l-0.6179,-0.75521c-0.25302,1.56974 -0.36169,3.04808 -0.35814,3.99697c0.00536,1.43216 0.03149,1.77126 -0.13097,3.23412c-0.17481,1.57403 -0.21936,1.63571 -0.51784,2.98281c0,0 -0.21693,0.97619 -1.19312,0.75926c-0.97619,-0.21693 -0.75926,-1.19312 -0.75926,-1.19312c0.58791,-2.63738 0.22691,-5.20462 0.6141,-7.81825c0.38249,-2.58192 1.31494,-5.70444 2.01928,-8.21652c1.45742,-5.19795 6.62274,-2.74852 8.68784,0.25874c-0.45288,3.60703 -2.64636,5.33347 -5.93992,5.93611c2.48816,1.75192 5.29246,6.6783 6.13652,8.90714l0.47779,0.9525c0,0 0.44721,0.89443 -0.44721,1.34164zM300.581,176.11797c-3.178,-3.48634 -5.02215,-0.43105 -5.96442,3.27516c0.06303,0.01216 0.12395,0.03024 0.18216,0.05363l0.80754,0.30283c2.29339,-0.33352 4.46707,-1.24735 4.97473,-3.63162z" fill="#00e2ff" stroke-width="0.5"/><path d="M330.63756,192.97528c0.27472,0.96152 -0.6868,1.23625 -0.6868,1.23625l-1.14972,0.28848c-4.72245,-0.21778 -2.57253,-5.47533 -1.84371,-8.37318c0.24065,-0.95684 0.92255,-2.84313 0.01161,-3.66971c-1.76958,-1.6057 -2.07774,0.29776 -2.62785,1.88977c-0.0156,0.5721 -0.04749,1.1448 -0.05295,1.68831l-0.10728,0.13309l0.06888,0.02296l-0.36771,1.10312c-0.12567,0.40862 -0.50614,0.70565 -0.95598,0.70565c-0.55228,0 -1,-0.44772 -1,-1c0,-0.03478 0.00178,-0.06914 0.00524,-0.103l0.12387,-1.36254l0.01203,0.00109c-0.00204,-0.01801 -0.00397,-0.03604 -0.00578,-0.05409c-0.08023,-0.80083 0.05419,-1.65851 0.34833,-2.45674c-0.05846,-0.55811 -0.22479,-1.01282 -0.60933,-1.15766c-0.64114,-0.24149 -0.70218,1.18695 -0.92883,1.83348c-0.62896,1.7941 -1.03971,3.54564 -1.5554,5.31382c-0.02229,0.18308 -0.04327,0.36612 -0.06269,0.54911l0.04536,0.00302l-0.12448,1.86726c-0.03042,0.52493 -0.46575,0.94123 -0.9983,0.94123c-0.55228,0 -1,-0.44772 -1,-1v-1h0.01893l-0.01819,-0.03838c0.03595,-0.46652 0.08488,-0.93382 0.14263,-1.40167c0.0026,-0.02624 0.00587,-0.0524 0.00977,-0.07849c0.05771,-0.45982 0.12372,-0.92018 0.19409,-1.38085c-0.56801,0.91328 -1.37335,1.66371 -2.31767,2.06391c-2.57707,1.09215 -4.51129,-1.91337 -4.77399,-4.18416c-0.00021,-0.0018 -0.00042,-0.0036 -0.00062,-0.0054c-0.26917,0.58054 -0.72093,1.15504 -1.39356,1.69139c-4.82508,3.84748 -9.02211,-3.7463 -5.49407,-7.21521l1.38268,-0.07612c0,0 0.54701,0 0.83189,0.40457c2.20496,-0.46912 4.47074,1.09072 4.91135,3.0972c0.18128,-0.46898 0.44584,-0.89857 0.77284,-1.31753c-0.19105,-0.90032 0.7208,-1.149 0.7208,-1.149c0.23686,-0.06315 0.47794,-0.1218 0.72118,-0.17248c0.14306,-0.19674 0.3845,-0.36275 0.79194,-0.36275c0.27336,0 0.47199,0.07472 0.61632,0.18332c1.22774,-0.03766 2.40993,0.29388 3.28348,1.43448c0.28272,0.36915 0.48906,0.77232 0.62659,1.19504c0.13456,-1.0653 0.22531,-2.12877 0.2236,-3.18784c0,0 0,-1 1,-1c1,0 1,1 1,1c-0.00025,0.17138 -0.00282,0.34281 -0.00751,0.51428c1.34,-0.92202 2.55386,-0.45091 3.2603,0.57369c1.24152,-1.27955 3.01574,-1.68939 4.70432,0.07992c2.12185,2.22329 0.44223,5.98421 -0.24061,8.46377c-0.30508,1.10781 -1.02566,3.15352 0.6585,2.99333l0.60028,-0.21152c0,0 0.96152,-0.27472 1.23625,0.6868zM313.96084,182.36119c-0.18427,0.10284 -0.36854,0.20568 -0.55281,0.30852c-0.96741,0.90317 -1.4801,4.90155 0.54917,5.21756c2.40332,0.37426 3.48225,-4.85985 0.73908,-5.53902c-0.20833,-0.05158 -0.46769,-0.03515 -0.73544,0.01294zM304.35633,183.58507c0.04727,0.10717 0.09328,0.21422 0.13369,0.32097c0.68534,1.81019 1.214,3.25045 3.32463,1.55262c2.76536,-2.22451 -1.44728,-5.19745 -3.16562,-2.17867c0,0 -0.10368,0.16589 -0.29271,0.30507z" fill="#00e2ff" stroke-width="0.5"/><path d="M331.66729,190.56828c0.70711,-0.70711 1.41421,0 1.41421,0l0.86942,1.04739c-0.0781,0.83283 2.99365,0.42439 4.05013,0.35291c3.3004,-0.22328 7.13722,0.38564 8.92897,-3.07547c-0.01843,-0.68907 0.30521,-1.41054 0.09157,-2.06591c-0.16074,-0.49309 -0.92929,-0.46577 -1.41625,-0.64422c-1.76581,-0.64709 -4.2903,-1.29914 -6.17401,-1.28778c-1.3185,0.00795 -3.07051,0.81579 -4.13075,-0.7561c-0.75157,-1.11427 1.39546,-2.40261 1.8712,-2.91773c1.50067,-1.62488 3.32413,-3.86159 5.42022,-5.15663c-5.09646,0.58857 -10.20479,0.90515 -15.24156,-0.42826c0,0 -0.96623,-0.25766 -0.70857,-1.2239c0.25766,-0.96623 1.2239,-0.70857 1.2239,-0.70857c5.45187,1.46533 11.03166,0.81503 16.5432,0.12625l0.01262,0.00214l-0.00034,-0.00345l1.52413,-0.15241c0.03705,-0.00416 0.07472,-0.0063 0.11289,-0.0063c0.55228,0 1,0.44772 1,1c0,0.29667 -0.12918,0.56316 -0.33437,0.74629l-1.48326,1.33493l-0.17296,-0.19218c-1.51135,1.55116 -3.18464,2.78174 -4.97435,4.25527c-0.58564,0.48218 -0.93183,1.19962 -1.44624,1.75718c-0.07077,0.0767 -0.18152,0.16386 -0.31239,0.25271c2.38479,-0.45522 6.46495,0.92828 8.00204,1.49707c0.56353,0.20853 2.20744,1.05208 2.4482,1.56197c0.18546,0.39277 0.10267,2.86351 0.09157,3.46913c-2.35018,4.79396 -7.21196,4.61021 -11.88959,4.61403c-2.36838,0.00193 -3.94571,0.62973 -4.95906,-1.80154l-0.36059,-0.18262c0,0 -0.70711,-0.70711 0,-1.41421z" fill="#00e2ff" stroke-width="0.5"/></g></g></svg>