<svg version="1.1" xmlns="http://www.w3.org/2000/svg" xmlns:xlink="http://www.w3.org/1999/xlink" width="71.84375" height="31.9375" viewBox="0,0,71.84375,31.9375"><g transform="translate(-284.12857,-163.8625)"><g data-paper-data="{&quot;isPaintingLayer&quot;:true}" fill-rule="nonzero" stroke="none" stroke-linecap="butt" stroke-linejoin="miter" stroke-miterlimit="10" stroke-dasharray="" stroke-dashoffset="0" style="mix-blend-mode: normal"><path d="M284.12857,195.8v-31.9375h71.84375v31.9375z" fill="#b183ff" stroke-width="0"/><path d="M302.74825,192.76943c-0.89443,0.44721 -1.34164,-0.44721 -1.34164,-0.44721l-0.52221,-1.0475c-1.23252,-3.32243 -3.93433,-6.00868 -5.91793,-9.04644l-0.18939,0.15496l-0.6179,-0.75521c-0.25302,1.56974 -0.36169,3.04808 -0.35814,3.99697c0.00536,1.43216 0.03149,1.77126 -0.13097,3.23412c-0.17481,1.57403 -0.21936,1.63571 -0.51784,2.98281c0,0 -0.21693,0.97619 -1.19312,0.75926c-0.97619,-0.21693 -0.75926,-1.19312 -0.75926,-1.19312c0.58791,-2.63738 0.22691,-5.20462 0.6141,-7.81825c0.38249,-2.58192 1.31494,-5.70444 2.01928,-8.21652c1.45742,-5.19795 6.62274,-2.74852 8.68784,0.25874c-0.45288,3.60703 -2.64636,5.33347 -5.93992,5.93611c2.48816,1.75192 5.29246,6.6783 6.13652,8.90714l0.47779,0.9525c0,0 0.44721,0.89443 -0.44721,1.34164zM300.581,176.11797c-3.178,-3.48634 -5.02215,-0.43105 -5.96442,3.27516c0.06303,0.01216 0.12395,0.03024 0.18216,0.05363l0.80754,0.30283c2.29339,-0.33352 4.46707,-1.24735 4.97473,-3.63162z" fill="#00e2ff" stroke-width="0.5"/><path d="M330.63756,192.97528c0.27472,0.96152 -0.6868,1.23625 -0.6868,1.23625l-1.14972,0.28848c-4.72245,-0.21778 -2.57253,-5.47533 -1.84371,-8.37318c0.24065,-0.95684 0.92255,-2.84313 0.01161,-3.66971c-1.76958,-1.6057 -2.07774,0.29776 -2.62785,1.88977c-0.0156,0.5721 -0.04749,1.1448 -0.05295,1.68831l-0.10728,0.13309l0.06888,0.02296l-0.36771,1.10312c-0.12567,0.40862 -0.50614,0.70565 -0.95598,0.70565c-0.55228,0 -1,-0.44772 -1,-1c0,-0.03478 0.00178,-0.06914 0.00524,-0.103l0.12387,-1.36254l0.01203,0.00109c-0.00204,-0.01801 -0.00397,-0.03604 -0.00578,-0.05409c-0.08023,-0.80083 0.05419,-1.65851 0.34833,-2.45674c-0.05846,-0.55811 -0.22479,-1.01282 -0.60933,-1.15766c-0.64114,-0.24149 -0.70218,1.18695 -0.92883,1.83348c-0.62896,1.7941 -1.03971,3.54564 -1.5554,5.31382c-0.02229,0.18308 -0.04327,0.36612 -0.06269,0.54911l0.04536,0.00302l-0.12448,1.86726c-0.03042,0.52493 -0.46575,0.94123 -0.9983,0.94123c-0.55228,0 -1,-0.44772 -1,-1v-1h0.01893l-0.01819,-0.03838c0.03595,-0.46652 0.08488,-0.93382 0.14263,-1.40167c0.0026,-0.02624 0.00587,-0.0524 0.00977,-0.07849c0.05771,-0.45982 0.12372,-0.92018 0.19409,-1.38085c-0.56801,0.91328 -1.37335,1.66371 -2.31767,2.06391c-2.57707,1.09215 -4.51129,-1.91337 -4.77399,-4.18416c-0.00021,-0.0018 -0.00042,-0.0036 -0.00062,-0.0054c-0.26917,0.58054 -0.72093,1.15504 -1.39356,1.69139c-4.82508,3.84748 -9.02211,-3.7463 -5.49407,-7.21521l1.38268,-0.07612c0,0 0.54701,0 0.83189,0.40457c2.20496,-0.46912 4.47074,1.09072 4.91135,3.0972c0.18128,-0.46898 0.44584,-0.89857 0.77284,-1.31753c-0.19105,-0.90032 0.7208,-1.149 0.7208,-1.149c0.23686,-0.06315 0.47794,-0.1218 0.72118,-0.17248c0.14306,-0.19674 0.3845,-0.36275 0.79194,-0.36275c0.27336,0 0.47199,0.07472 0.61632,0.18332c1.22774,-0.03766 2.40993,0.29388 3.28348,1.43448c0.28272,0.36915 0.48906,0.77232 0.62659,1.19504c0.13456,-1.0653 0.22531,-2.12877 0.2236,-3.18784c0,0 0,-1 1,-1c1,0 1,1 1,1c-0.00025,0.17138 -0.00282,0.34281 -0.00751,0.51428c1.34,-0.92202 2.55386,-0.45091 3.2603,0.57369c1.24152,-1.27955 3.01574,-1.68939 4.70432,0.07992c2.12185,2.22329 0.44223,5.98421 -0.24061,8.46377c-0.30508,1.10781 -1.02566,3.15352 0.6585,2.99333l0.60028,-0.21152c0,0 0.96152,-0.27472 1.23625,0.6868zM313.96084,182.36119c-0.18427,0.10284 -0.36854,0.20568 -0.55281,0.30852c-0.96741,0.90317 -1.4801,4.90155 0.54917,5.21756c2.40332,0.37426 3.48225,-4.85985 0.73908,-5.53902c-0.20833,-0.05158 -0.46769,-0.03515 -0.73544,0.01294zM304.35633,183.58507c0.04727,0.10717 0.09328,0.21422 0.13369,0.32097c0.68534,1.81019 1.214,3.25045 3.32463,1.55262c2.76536,-2.22451 -1.44728,-5.19745 -3.16562,-2.17867c0,0 -0.10368,0.16589 -0.29271,0.30507z" fill="#00e2ff" stroke-width="0.5"/><path d="M335.12604,172.975c-0.6,-0.8 0.2,-1.4 0.2,-1.4l0.5,-0.375c1.99827,-1.49411 3.8431,-3.44705 5.99406,-4.64451l-0.17406,-0.27849l0.98693,-0.61683c0.15638,-0.10133 0.34286,-0.16017 0.54307,-0.16017c0.55228,0 1,0.44772 1,1c0,0.13174 -0.02547,0.25752 -0.07176,0.3727l-0.33233,0.88622c-0.06093,0.66168 -0.09677,1.32663 -0.09591,1.99108c-0.02923,7.26484 -1.38901,14.83936 -2.31357,22.07664c1.82886,0.40596 4.06044,-0.07664 5.93857,-0.07664l0.05279,-0.14443c0,0 0.89443,-0.44721 1.34164,0.44721c0.44721,0.89443 -0.44721,1.34164 -0.44721,1.34164l-0.94721,0.35557c-2.1561,0 -4.53666,0.47214 -6.62318,-0.03129c-1.73736,-0.41918 -3.97622,-1.83432 -5.72407,-1.8441c-0.88481,-0.00495 -2.08311,0.7436 -3.02871,0.86766c0,0 -0.99228,0.12403 -1.11631,-0.86824c-0.12403,-0.99228 0.86824,-1.11631 0.86824,-1.11631c1.0559,-0.12374 2.19775,-0.87894 3.22129,-0.88234c1.40571,-0.00467 3.02169,0.71285 4.53137,1.30632c0.91736,-7.01642 2.2795,-14.41024 2.24638,-21.43171c0.00015,-0.1279 0.0018,-0.2558 0.00481,-0.38368c-1.34396,1.38366 -3.75371,2.75557 -4.65481,3.43368l-0.5,0.375c0,0 -0.8,0.6 -1.4,-0.2z" fill="#00e2ff" stroke-width="0.5"/></g></g></svg>